<?xml version="1.0" encoding="UTF-8"?>
<svg id="Layer_1" xmlns="http://www.w3.org/2000/svg" viewBox="0 0 500 500">
  <path d="M218.85,148.98h-34.86v-34.86c0-9.67-7.83-17.5-17.5-17.5s-17.5,7.83-17.5,17.5v34.86h-34.86c-9.67,0-17.5,7.83-17.5,17.5s7.83,17.5,17.5,17.5h34.86v34.86c0,9.67,7.83,17.5,17.5,17.5s17.5-7.83,17.5-17.5v-34.86h34.86c9.67,0,17.5-7.83,17.5-17.5s-7.83-17.5-17.5-17.5Z"/>
  <path d="M440.6,440.6l-156.77-156.77c30.09-30.09,48.7-71.65,48.7-117.56C332.52,74.44,258.08,0,166.26,0S0,74.44,0,166.26s74.44,166.26,166.26,166.26c33.25,0,64.21-9.76,90.19-26.57l159.4,159.4c6.83,6.83,17.91,6.83,24.75,0,6.83-6.83,6.83-17.91,0-24.75ZM73.45,259.08c-24.79-24.79-38.45-57.75-38.45-92.82s13.65-68.02,38.45-92.82,57.75-38.45,92.82-38.45,68.02,13.65,92.82,38.45,38.45,57.75,38.45,92.82-13.65,68.02-38.45,92.82c-24.79,24.79-57.75,38.45-92.82,38.45s-68.02-13.65-92.82-38.45Z"/>
</svg>